<?xml version="1.0" standalone="no"?>
<!DOCTYPE svg PUBLIC "-//W3C//DTD SVG 20010904//EN"
 "http://www.w3.org/TR/2001/REC-SVG-20010904/DTD/svg10.dtd">
<svg version="1.0" xmlns="http://www.w3.org/2000/svg"
 width="465.000000pt" height="465.000000pt" viewBox="0 0 465.000000 465.000000"
 preserveAspectRatio="xMidYMid meet">
<metadata>
Created by potrace 1.14, written by Peter Selinger 2001-2017
</metadata>
<g transform="translate(0.000000,465.000000) scale(0.100000,-0.100000)"
fill="#000000" stroke="none">
<path d="M3034 3676 c-84 -50 -89 -54 -92 -89 l-3 -37 -27 15 c-26 16 -29 15
-119 -37 l-93 -53 0 -173 0 -173 -22 7 c-59 21 -128 -16 -128 -67 0 -31 27
-77 50 -84 20 -6 20 -6 -1 -34 -17 -23 -22 -48 -26 -127 -3 -55 -1 -125 4
-156 6 -31 7 -61 4 -66 -3 -5 -127 62 -276 149 -148 87 -275 158 -281 158 -6
1 -64 -30 -130 -67 -65 -38 -129 -74 -141 -81 l-23 -12 0 105 0 104 141 1
c144 0 209 12 209 36 0 14 -21 25 -51 25 -12 0 -19 7 -19 20 0 34 -44 70 -85
70 -29 0 -39 -6 -55 -32 l-20 -33 0 27 c0 62 -45 105 -96 92 l-24 -6 0 133 0
134 -94 53 c-52 28 -97 52 -101 52 -4 0 -207 -115 -451 -256 l-444 -256 0
-243 0 -242 -30 -6 c-31 -7 -60 -48 -60 -89 -1 -22 -1 -22 -16 4 -17 33 -49
43 -86 29 -30 -11 -63 -55 -53 -71 4 -6 -4 -10 -17 -10 -14 0 -33 -6 -44 -14
-44 -33 34 -54 209 -55 l97 -1 1 -177 c1 -319 4 -418 12 -430 8 -13 161 -103
176 -103 5 0 49 23 98 51 142 82 139 81 138 56 0 -12 -4 -27 -8 -34 -12 -19 2
-59 31 -85 26 -22 27 -28 25 -106 -1 -45 3 -82 8 -82 5 0 12 -1 17 -2 4 -1 7
23 8 55 0 31 2 59 5 61 2 3 53 -23 112 -57 l107 -62 0 -72 c0 -58 3 -73 15
-73 13 0 15 44 15 338 l0 337 34 19 34 18 57 -32 57 -33 -71 -41 -72 -40 3
-110 3 -110 87 -50 88 -51 0 -107 0 -106 441 -256 c243 -141 451 -256 463
-256 11 1 269 144 571 319 l550 318 3 109 c3 99 1 110 -17 125 -24 20 -26 19
81 80 72 41 78 46 78 77 0 36 0 36 34 21 21 -10 35 -5 115 41 l91 52 0 373 0
372 107 2 c105 1 183 14 183 29 0 16 -25 32 -51 32 -22 0 -26 4 -22 19 3 13
-4 29 -21 45 -43 44 -111 31 -128 -24 -3 -8 -8 4 -11 27 -5 27 -16 48 -32 61
-25 20 -25 21 -25 184 l0 164 -432 249 c-237 138 -441 255 -453 262 -18 10
-33 5 -111 -41z m-348 -691 c-11 -8 -25 -15 -30 -15 -6 1 0 7 14 15 32 19 40
18 16 0z m-1316 -1115 c0 -39 -1 -40 -22 -29 -48 25 -51 31 -21 50 39 26 43
24 43 -21z m-50 -47 l50 -28 0 -77 c0 -43 -3 -78 -6 -78 -3 0 -25 12 -50 26
-35 21 -42 29 -33 40 15 18 1 37 -25 32 -19 -4 -21 -1 -18 41 6 83 8 84 82 44z
m-140 -48 c0 -26 -14 -33 -25 -15 -9 14 1 40 15 40 5 0 10 -11 10 -25z m0 -80
c7 -19 16 -25 37 -24 17 1 53 -13 91 -36 l62 -37 0 -79 0 -79 -52 30 c-29 17
-79 45 -110 63 l-58 32 0 78 c0 79 12 99 30 52z"/>
<path d="M2193 3625 c0 -33 2 -45 4 -27 2 18 2 45 0 60 -2 15 -4 0 -4 -33z"/>
<path d="M2000 3594 c0 -6 16 -25 35 -44 19 -19 35 -29 35 -24 0 6 -16 25 -35
44 -19 19 -35 29 -35 24z"/>
<path d="M2380 3565 c-18 -19 -31 -37 -29 -40 3 -2 21 11 39 30 18 19 31 37
29 40 -3 2 -21 -11 -39 -30z"/>
<path d="M2132 3515 c-65 -54 -77 -111 -37 -166 13 -19 32 -44 41 -56 9 -13
16 -42 16 -70 0 -63 12 -83 48 -83 38 0 64 37 55 79 -8 36 13 87 49 120 21 20
26 33 26 73 0 41 -5 54 -33 84 -28 30 -42 37 -83 41 -44 5 -54 2 -82 -22z"/>
<path d="M1933 3408 c-2 -5 24 -8 58 -8 34 0 60 3 56 6 -8 9 -108 10 -114 2z"/>
<path d="M2399 3409 c-16 -5 -5 -7 34 -8 31 -1 57 1 57 3 0 8 -67 11 -91 5z"/>
</g>
</svg>
